<?xml version="1.0" encoding="iso-8859-1"?>
<!-- Uploaded to: SVG Repo, www.svgrepo.com, Generator: SVG Repo Mixer Tools -->
<svg height="800px" width="800px" version="1.1" id="Capa_1" xmlns="http://www.w3.org/2000/svg" xmlns:xlink="http://www.w3.org/1999/xlink" 
	 viewBox="0 0 512.001 512.001" xml:space="preserve">
<path style="fill:#74D6D0;" d="M399.726,222.4c-34.151,0-61.934-27.784-61.934-61.934c0-9.926,2.4-19.737,6.96-28.518
	c0.303-0.706,0.649-1.399,1.039-2.074l36.696-63.561c3.529-6.113,10.051-9.878,17.109-9.878h-0.001
	c7.06,0,13.582,3.766,17.111,9.878l34.382,59.556c6.92,10.252,10.572,22.195,10.572,34.598
	C461.662,194.616,433.877,222.4,399.726,222.4z"/>
<path style="fill:#707070;" d="M196.558,129.807c-10.911,0-19.757-8.846-19.757-19.757V19.757C176.802,8.846,185.647,0,196.558,0
	s19.757,8.846,19.757,19.757v90.294C216.315,120.962,207.469,129.807,196.558,129.807z"/>
<path style="fill:#06ABA4;" d="M398.788,39.513H149.817c-10.911,0-19.757-8.846-19.757-19.757S138.906,0,149.817,0h248.971
	c10.911,0,19.757,8.846,19.757,19.757S409.699,39.513,398.788,39.513z"/>
<path style="fill:#FF8546;" d="M255.808,210.143H137.31c-10.911,0-19.757-8.846-19.757-19.757v-80.336
	c0-10.911,8.846-19.757,19.757-19.757h118.499c10.911,0,19.757,8.846,19.757,19.757v80.336
	C275.565,201.297,266.719,210.143,255.808,210.143z"/>
<path style="fill:#4CD6D5;" d="M258.976,512H134.142c-46.208,0-83.8-37.591-83.8-83.797V254.427c0-46.207,37.593-83.798,83.8-83.798
	h124.834c46.208,0,83.8,37.592,83.8,83.798v173.775C342.776,474.409,305.183,512,258.976,512z"/>
<path style="fill:#E03905;" d="M255.808,90.294H197.03v119.849h58.778c10.911,0,19.757-8.846,19.757-19.757v-80.336
	C275.565,99.139,266.719,90.294,255.808,90.294z"/>
<path style="fill:#06ABA4;" d="M258.976,170.63H197.03v341.372h61.946c46.208,0,83.8-37.592,83.8-83.797V254.427
	C342.776,208.221,305.183,170.63,258.976,170.63z"/>
</svg>