<?xml version="1.0" encoding="iso-8859-1"?>
<!-- Uploaded to: SVG Repo, www.svgrepo.com, Generator: SVG Repo Mixer Tools -->
<svg height="800px" width="800px" version="1.1" id="Layer_1" xmlns="http://www.w3.org/2000/svg" xmlns:xlink="http://www.w3.org/1999/xlink" 
	 viewBox="0 0 512 512" xml:space="preserve">
<path style="fill:#665A4B;" d="M491.857,132.905v89.704c0,6.147-4.983,11.13-11.13,11.13c-6.147,0-11.13-4.983-11.13-11.13v-89.704
	c0-61.009-50.174-110.644-111.845-110.644h-22.36c-61.673,0-111.846,49.635-111.846,110.644v89.704c0,6.147-4.983,11.13-11.13,11.13
	c-6.147,0-11.13-4.983-11.13-11.13v-89.704C201.284,59.62,261.444,0,335.391,0h22.36C431.697,0,491.857,59.62,491.857,132.905z"/>
<path style="fill:#F77E41;" d="M191.054,286.579l-9.799-93.489c-1.363-13.01,9.712-24.273,23.868-24.273h282.894
	c14.157,0,25.232,11.264,23.868,24.273l-31.329,298.901C479.368,503.341,469.039,512,456.689,512H236.453
	c-12.349,0-22.679-8.659-23.868-20.008l-1.106-10.546L191.054,286.579z"/>
<path style="fill:#FF9B57;" d="M511.886,193.09l-25.259,240.997h-92.671c-58.775,0-107.421-45.7-111.087-104.361l-10.056-160.909
	h215.206C502.174,168.816,513.25,180.08,511.886,193.09z"/>
<path style="fill:#FFDB80;" d="M401.453,283.743l-14.003,20.607l-0.904,24.821c-0.292,8.001-8.085,13.608-15.859,11.409
	l-24.119-6.82l-24.119,6.82c-7.773,2.198-15.568-3.409-15.859-11.409l-0.903-24.821l-14.003-20.607
	c-4.513-6.642-1.536-15.715,6.057-18.461l23.56-8.52l15.465-19.555c4.984-6.303,14.619-6.303,19.603,0l15.465,19.555l23.56,8.52
	C402.989,268.029,405.967,277.101,401.453,283.743z"/>
<path style="fill:#967A56;" d="M112.079,325.838c-3.873,0-7.623-2.026-9.67-5.608L4.855,149.603
	c-5.021-8.781-6.193-18.947-3.304-28.629c2.906-9.735,9.515-17.646,18.611-22.281c9.068-4.621,19.366-5.345,29.001-2.042
	c9.576,3.283,17.207,10.112,21.487,19.231L154.13,293.68c2.553,5.438,0.331,11.921-5.022,14.648l-31.984,16.295
	C115.508,325.447,113.781,325.838,112.079,325.838z"/>
<path style="fill:#B79969;" d="M41.944,117.709c3.822,1.31,6.862,4.021,8.557,7.634l75.79,161.422
	c1.733,3.691,0.224,8.09-3.408,9.941l0,0c-3.591,1.83-7.986,0.518-9.986-2.981L24.18,138.554c-1.968-3.442-2.429-7.424-1.298-11.212
	c1.146-3.841,3.77-6.971,7.385-8.813c2.141-1.091,4.454-1.643,6.785-1.643C38.691,116.886,40.341,117.16,41.944,117.709z"/>
<path style="fill:#9379AD;" d="M237.142,313.435l47.474,116.171c3.348,8.193-0.449,17.725-8.744,21.951l-114.606,58.387
	c-8.296,4.226-18.335,1.743-23.12-5.719L70.294,398.436c-16.233-25.308-5.996-59.394,22.141-73.729l71.255-36.302
	C191.827,274.072,225.785,285.644,237.142,313.435z"/>
<path style="fill:#694887;" d="M221.253,330.177l36.552,89.445c2.578,6.309-0.345,13.648-6.732,16.902l-88.24,44.955
	c-6.387,3.253-14.117,1.342-17.801-4.403l-52.242-81.453c-12.498-19.486-4.617-45.73,17.047-56.767l54.862-27.951
	C186.362,299.869,212.508,308.778,221.253,330.177z"/>
</svg>