<?xml version="1.0" encoding="iso-8859-1"?>
<!-- Uploaded to: SVG Repo, www.svgrepo.com, Generator: SVG Repo Mixer Tools -->
<svg height="800px" width="800px" version="1.1" id="Layer_1" xmlns="http://www.w3.org/2000/svg" xmlns:xlink="http://www.w3.org/1999/xlink" 
	 viewBox="0 0 512 512" xml:space="preserve">
<path style="fill:#F95428;" d="M256,38.596c28.05,0,50.796,22.746,50.796,50.808c0,19.292-10.754,36.073-26.58,44.671
	c-7.202,3.92-15.446,6.137-24.216,6.137c-8.77,0-17.026-2.217-24.216-6.137c-15.838-8.599-26.592-25.38-26.592-44.671
	C205.192,61.342,227.938,38.596,256,38.596z"/>
<g>
	<path style="fill:#F7B239;" d="M306.796,126.726c28.062,0,50.808,22.746,50.808,50.808c0,19.292-10.754,36.073-26.592,44.671
		c-7.202,3.92-15.446,6.137-24.216,6.137c-9.199,0-17.834-2.45-25.282-6.725c-15.25-8.77-25.514-25.233-25.514-44.083
		c0-19.292,10.754-36.073,26.58-44.671C289.782,128.943,298.026,126.726,306.796,126.726z"/>
	<path style="fill:#F7B239;" d="M256,177.534c0,19.292-10.754,36.073-26.592,44.671c-7.19,3.92-15.446,6.137-24.216,6.137
		c-9.211,0-17.846-2.45-25.294-6.725c-15.25-8.77-25.514-25.233-25.514-44.083c0-28.062,22.746-50.808,50.808-50.808
		c8.77,0,17.026,2.217,24.216,6.137C245.246,141.461,256,158.242,256,177.534z"/>
</g>
<g>
	<path style="fill:#F95428;" d="M357.604,214.477c28.062,0,50.808,22.746,50.808,50.808c0,18.851-10.264,35.313-25.514,44.083
		c-7.447,4.275-16.095,6.725-25.294,6.725c-9.199,0-17.847-2.45-25.294-6.725c-15.25-8.77-25.514-25.233-25.514-44.083
		s10.264-35.313,25.514-44.083C339.757,216.926,348.405,214.477,357.604,214.477z"/>
	<path style="fill:#F95428;" d="M306.796,265.285c0,18.851-10.264,35.313-25.514,44.083c-7.447,4.275-16.083,6.725-25.282,6.725
		c-9.211,0-17.847-2.45-25.294-6.725c-15.25-8.77-25.514-25.233-25.514-44.083s10.265-35.313,25.514-44.083
		c7.447-4.275,16.083-6.725,25.294-6.725c8.77,0,17.014,2.217,24.216,6.137C296.041,229.212,306.796,245.993,306.796,265.285z"/>
	<path style="fill:#F95428;" d="M205.192,265.285c0,18.851-10.264,35.313-25.514,44.083c-7.447,4.275-16.083,6.725-25.294,6.725
		c-9.211,0-17.847-2.45-25.294-6.725c-15.25-8.77-25.514-25.233-25.514-44.083c0-28.062,22.746-50.808,50.808-50.808
		c8.77,0,17.026,2.217,24.216,6.137C194.438,229.212,205.192,245.993,205.192,265.285z"/>
</g>
<g>
	<path style="fill:#F7B239;" d="M459.22,353.305H357.604c0-18.851,10.265-35.301,25.514-44.071
		c7.447-4.275,16.095-6.725,25.294-6.725C436.474,302.509,459.22,325.255,459.22,353.305z"/>
	<path style="fill:#F7B239;" d="M357.604,353.305H256c0-18.851,10.265-35.301,25.514-44.071c7.447-4.275,16.083-6.725,25.282-6.725
		s17.847,2.45,25.294,6.725C347.339,318.003,357.604,334.454,357.604,353.305z"/>
	<path style="fill:#F7B239;" d="M256,353.305H154.384c0-18.851,10.264-35.301,25.514-44.071c7.447-4.275,16.083-6.725,25.294-6.725
		c9.211,0,17.847,2.45,25.294,6.725C245.735,318.003,256,334.454,256,353.305z"/>
	<path style="fill:#F7B239;" d="M154.384,353.305H52.78c0-28.05,22.746-50.796,50.796-50.796c9.211,0,17.847,2.45,25.294,6.725
		C144.119,318.003,154.384,334.454,154.384,353.305z"/>
</g>
<path style="fill:#2F9B0B;" d="M472.632,375.714v39.839c0,31.957-25.894,57.851-57.839,57.851H97.207
	c-31.957,0-57.851-25.894-57.851-57.851v-39.839H472.632z"/>
<path style="fill:#31AF0E;" d="M488.36,352.08c13.057,0,23.64,10.583,23.64,23.64c0,6.516-2.646,12.433-6.921,16.707
	c-4.275,4.275-10.191,6.921-16.72,6.921h-15.727H39.355H23.628C10.571,399.348,0,388.765,0,375.72c0-6.529,2.646-12.445,6.921-16.72
	s10.179-6.921,16.707-6.921H52.78h101.604H256h101.604H459.22H488.36z"/>
</svg>