<?xml version="1.0" encoding="UTF-8"?>
<svg xmlns="http://www.w3.org/2000/svg" viewBox="0 0 511.999 511.999">
  <path fill="#7BD9BF" d="M454.516 236.265 82.152 3.538C74.976-.947 65.934-1.183 58.535 2.917c-7.399 4.099-11.99 11.894-11.99 20.354v232.727 232.727c0 8.46 4.591 16.254 11.992 20.356 3.516 1.949 7.401 2.917 11.281 2.917 4.287 0 8.567-1.184 12.335-3.537l372.364-232.726c6.805-4.253 10.938-11.711 10.938-19.735v-.002c0-8.022-4.134-15.48-10.937-19.733Z"/>
  <path fill="#66B4BA" d="M58.537 509.082c3.516 1.949 7.401 2.917 11.281 2.917 4.287 0 8.567-1.184 12.335-3.537l372.364-232.726c6.805-4.253 10.938-11.711 10.938-19.735v-.002H46.545v232.727c0 8.461 4.591 16.254 11.992 20.356Z"/>
</svg>
