<?xml version="1.0" encoding="iso-8859-1"?>
<!-- Uploaded to: SVG Repo, www.svgrepo.com, Generator: SVG Repo Mixer Tools -->
<svg height="800px" width="800px" version="1.1" id="Layer_1" xmlns="http://www.w3.org/2000/svg" xmlns:xlink="http://www.w3.org/1999/xlink" 
	 viewBox="0 0 512 512" xml:space="preserve">
<path style="fill:#99E5FF;" d="M256.006,512C128.803,512,8.589,383.94,93.458,193.175c32.638-73.365,96.851-148.429,151.841-189.61
	c6.346-4.753,15.067-4.753,21.414,0c52.834,39.567,118.217,114.03,151.84,189.61C503.445,383.992,383.043,512,256.006,512z"/>
<path style="fill:#4AD0FF;" d="M418.554,193.175c-33.625-75.58-99.008-150.043-151.841-189.61C263.538,1.187,259.769-0.001,256,0
	v512c0.001,0,0.004,0,0.006,0C383.043,512,503.445,383.992,418.554,193.175z"/>
<path style="fill:#16A5D9;" d="M326.898,421.032c-30.778,0-55.818-25.039-55.818-55.816s25.039-55.816,55.818-55.816
	c30.777,0,55.816,25.039,55.816,55.816S357.675,421.032,326.898,421.032z"/>
</svg>