<?xml version="1.0" encoding="UTF-8"?>
<svg xmlns="http://www.w3.org/2000/svg" viewBox="0 0 512 512">
  <g transform="translate(1 1)">
    <path fill="#CCCCCC" d="M502.467 255c0 136.533-110.933 247.467-247.467 247.467S7.533 391.533 7.533 255 118.467 7.533 255 7.533 502.467 118.467 502.467 255"/>
    <path fill="#E2E3E5" d="M476.867 255c0 136.533-98.987 247.467-221.867 247.467S33.133 391.533 33.133 255 132.12 7.533 255 7.533 476.867 118.467 476.867 255"/>
    <path fill="#FFFFFF" d="M33.133 255C33.133 118.467 132.12 7.533 255 7.533 118.467 7.533 7.533 118.467 7.533 255S118.467 502.467 255 502.467C132.12 502.467 33.133 391.533 33.133 255"/>
    <path fill="#B6B6B6" d="M255 511C114.2 511-1 395.8-1 255S114.2-1 255-1s256 115.2 256 256S395.8 511 255 511Zm0-494.933C123.587 16.067 16.067 123.587 16.067 255S123.587 493.933 255 493.933 493.933 386.413 493.933 255 386.413 16.067 255 16.067Z"/>
    <polygon fill="#E0E0E0" points="383,255 195.267,383 195.267,257.56 195.267,127"/>
    <path fill="#F0F0F0" d="M361.667 247.32c-14.507-23.04-58.027-43.52-81.92-59.733-20.48-13.653-40.96-23.893-59.733-39.253v220.16c5.12-3.413 11.093-5.973 16.213-9.387-1.707-4.267 0-9.387 3.413-11.093s6.827-2.56 11.093-3.413c1.707 0 3.413 0 4.267 0 17.067-15.36 33.28-31.573 53.76-42.667.853 0 .853 0 1.707-.853.853-.853.853-.853 1.707-1.707 11.093-6.827 23.04-12.8 34.987-18.773-1.707-3.413-.853-8.533 3.413-11.093 5.12-3.413 11.093-5.973 17.067-6.827.853 0 1.707 0 2.56 0 3.413-5.973 0-11.093-8.533-13.653"/>
    <path fill="#B6B6B6" d="M195.267 391.533c-1.707 0-2.56 0-4.267-.853-2.56-1.707-4.267-4.267-4.267-7.68V127c0-3.413 1.707-5.973 4.267-7.68 2.56-1.707 5.973-.853 8.533.853l187.733 128c2.56 1.707 3.413 4.267 3.413 6.827 0 2.56-1.707 5.12-3.413 6.827l-187.733 128c-.853.853-2.56 1.706-4.266 1.706Zm8.533-248.32v223.573L367.64 255 203.8 143.213Z"/>
  </g>
</svg>
