<?xml version="1.0" encoding="iso-8859-1"?>
<!-- Uploaded to: SVG Repo, www.svgrepo.com, Generator: SVG Repo Mixer Tools -->
<svg height="800px" width="800px" version="1.1" id="Layer_1" xmlns="http://www.w3.org/2000/svg" xmlns:xlink="http://www.w3.org/1999/xlink" 
	 viewBox="0 0 511.98 511.98" xml:space="preserve">
<path style="fill:#FB6D51;" d="M511.98,100.821c-145.135,18.663-213.319-21.296-213.319-21.296
	C184.055,334.75,7.812,229.168,0,314.329v53.826l203.523,41.327l308.457-12.656v-40.015V100.821z"/>
<path style="fill:#646C77;" d="M0,335.484v42.67c37.811,87.888,511.98,42.672,511.98,42.672v-42.672
	C76.645,425.169,0,335.484,0,335.484z"/>
<g>
	<path style="fill:#E5E8EC;" d="M252.904,159.858c-4.437,6.078-8.914,11.781-13.421,17.156c15.289,7.797,37.507,17.39,57.944,19.765
		l0,0c0.406,0.047,0.812,0.078,1.234,0.078c5.89,0,10.671-4.781,10.671-10.672c0-5.468-4.125-9.968-9.437-10.578v-0.016
		C284.115,173.763,266.326,166.451,252.904,159.858z"/>
	<path style="fill:#E5E8EC;" d="M276.099,228.777L276.099,228.777c0.406,0.047,0.812,0.078,1.234,0.078
		c5.875,0,10.655-4.781,10.655-10.671c0-5.469-4.124-9.969-9.437-10.578v-0.016c-17.258-2-36.906-10.562-50.632-17.562
		c-5.32,5.656-10.679,10.875-16.046,15.703C226.866,213.841,252.639,226.058,276.099,228.777z"/>
	<path style="fill:#E5E8EC;" d="M193.383,220.824c-6.719,4.969-13.421,9.391-20.093,13.344
		c12.945,7.453,43.343,23.452,70.599,26.608h0.008c0.398,0.047,0.812,0.078,1.227,0.078c5.891,0,10.664-4.781,10.664-10.671
		c0-5.469-4.125-9.969-9.437-10.578v-0.016C228.085,237.464,207.148,228.011,193.383,220.824z"/>
</g>
<g>
	<path style="fill:#424953;" d="M53.333,385.045c-5.89,0-10.664,4.766-10.664,10.656v13.359c6.539,2.328,13.679,4.438,21.328,6.359
		V395.7C63.997,389.81,59.224,385.045,53.333,385.045z"/>
	<path style="fill:#424953;" d="M117.331,397.045c-5.891,0-10.664,4.766-10.664,10.656v15.827
		c6.906,0.984,14.031,1.875,21.335,2.672v-18.499C128.003,401.81,123.221,397.045,117.331,397.045z"/>
	<path style="fill:#424953;" d="M181.329,402.154c-5.891,0-10.664,4.766-10.664,10.672v16.983
		c7.023,0.438,14.141,0.812,21.335,1.141v-18.124C192,406.92,187.219,402.154,181.329,402.154z"/>
	<path style="fill:#424953;" d="M245.326,403.482c-5.891,0-10.664,4.781-10.664,10.672v18.062
		c7.093,0.109,14.218,0.188,21.335,0.219v-18.28C255.998,408.263,251.217,403.482,245.326,403.482z"/>
	<path style="fill:#424953;" d="M309.332,402.154c-5.906,0-10.671,4.766-10.671,10.672v19.358c7.171-0.109,14.28-0.25,21.327-0.422
		v-18.937C319.988,406.92,315.207,402.154,309.332,402.154z"/>
	<path style="fill:#424953;" d="M373.329,400.154c-5.89,0-10.671,4.766-10.671,10.672v19.562c7.266-0.297,14.374-0.594,21.327-0.922
		v-18.64C383.985,404.92,379.219,400.154,373.329,400.154z"/>
	<path style="fill:#424953;" d="M437.328,396.154c-5.891,0-10.672,4.766-10.672,10.672v20.343
		c7.484-0.453,14.608-0.906,21.326-1.359v-18.983C447.982,400.92,443.218,396.154,437.328,396.154z"/>
</g>
</svg>