<svg xmlns="http://www.w3.org/2000/svg" viewBox="0 0 64 64" role="img" aria-label="alimentacao">
  <circle cx="32" cy="32" r="30" fill="#d62d2d"/>
  <path d="M32 22c-3-4-9-5-12-1-3 4-2 10 2 14 2 2 4 3 5 5 2 2 3 5 3 8v2h4v-2c0-3 1-6 3-8 1-2 3-3 5-5 4-4 5-10 2-14-3-4-9-3-12 1Z" fill="#ffffff"/>
  <path d="M32 16c1-4 4-6 8-7" stroke="#3fae49" stroke-width="3" fill="none" stroke-linecap="round"/>
  <path d="M35 16c3-1 5 0 7 2" stroke="#3fae49" stroke-width="2.5" fill="none" stroke-linecap="round"/>
  <path d="M28 29c2-2 6-2 8 0" stroke="#d62d2d" stroke-width="2" fill="none" stroke-linecap="round"/>
</svg>
