<svg xmlns="http://www.w3.org/2000/svg" viewBox="0 0 64 64" role="img" aria-label="alimentacao">
  <circle cx="32" cy="32" r="30" fill="#d62d2d"/>
  <path d="M32 20c-3-4-8-6-12-3-4 3-4 9 0 13 2 2 4 3 6 5 3 3 4 6 4 10v3h4v-3c0-4 1-7 4-10 2-2 4-3 6-5 4-4 4-10 0-13-4-3-9-1-12 3Z" fill="#fff"/>
  <path d="M31 17c2-2 5-3 7-2" stroke="#7a1b1b" stroke-width="2" fill="none" stroke-linecap="round"/>
  <path d="M32 16c0-3 2-6 6-7" stroke="#39a84a" stroke-width="3" fill="none" stroke-linecap="round"/>
</svg>
