<?xml version="1.0" encoding="utf-8"?><!-- Uploaded to: SVG Repo, www.svgrepo.com, Generator: SVG Repo Mixer Tools -->
<svg width="800px" height="800px" viewBox="0 0 128 128" xmlns="http://www.w3.org/2000/svg" xmlns:xlink="http://www.w3.org/1999/xlink" aria-hidden="true" role="img" class="iconify iconify--noto" preserveAspectRatio="xMidYMid meet"><path d="M86.69 14.12L3.91 103.43s-.67.51-.67 1.37c0 1.04 3.1 3.83 4 3.87c.9.04 1.63-.78 1.63-.78l77.02-78.47l.8-15.3z" fill="#d61029"></path><path d="M102.1 42.41l-85.07 74.88s-.84.75-.63 1.76c.17.87 2.49 3.42 3.27 3.48c1.03.08 1.67-.52 1.67-.52l85.89-71.02l-5.13-8.58z" fill="#d61029"></path><path d="M117.49 29.36c-1.19.24-22.25 19.09-22.25 19.09l6.23 7.31s22.09-17.8 22.5-18.81c.41-1.02-.47-2.07-2.77-4.51s-3.04-3.22-3.71-3.08z" fill="#474c4f"></path><path d="M94.55 6.47c-1.15 0-18.34 18.95-18.34 18.95l6.87 6.87s18.18-18.19 18.31-19.2c.14-1.01-.88-2.01-3.18-4.16c-1.88-1.75-2.71-2.46-3.66-2.46z" fill="#474c4f"></path></svg>